<svg width="52" height="13" viewBox="0 0 52 13" fill="none" xmlns="http://www.w3.org/2000/svg">
<path d="M10.312 0.799999V12H9.144V1.824H2.056V12H0.888V0.799999H10.312ZM17.2911 12.08C16.4805 12.08 15.7498 11.8987 15.0991 11.536C14.4485 11.1627 13.9365 10.6507 13.5631 10C13.1898 9.34933 13.0031 8.61333 13.0031 7.792C13.0031 6.97067 13.1898 6.23467 13.5631 5.584C13.9365 4.93333 14.4485 4.42667 15.0991 4.064C15.7498 3.70133 16.4805 3.52 17.2911 3.52C18.1018 3.52 18.8325 3.70133 19.4831 4.064C20.1338 4.42667 20.6405 4.93333 21.0031 5.584C21.3765 6.23467 21.5631 6.97067 21.5631 7.792C21.5631 8.61333 21.3765 9.34933 21.0031 10C20.6405 10.6507 20.1338 11.1627 19.4831 11.536C18.8325 11.8987 18.1018 12.08 17.2911 12.08ZM17.2911 11.072C17.8885 11.072 18.4218 10.9387 18.8911 10.672C19.3711 10.3947 19.7445 10.0053 20.0111 9.504C20.2778 9.00267 20.4111 8.432 20.4111 7.792C20.4111 7.152 20.2778 6.58133 20.0111 6.08C19.7445 5.57867 19.3711 5.19467 18.8911 4.928C18.4218 4.65067 17.8885 4.512 17.2911 4.512C16.6938 4.512 16.1551 4.65067 15.6751 4.928C15.2058 5.19467 14.8325 5.57867 14.5551 6.08C14.2885 6.58133 14.1551 7.152 14.1551 7.792C14.1551 8.432 14.2885 9.00267 14.5551 9.504C14.8325 10.0053 15.2058 10.3947 15.6751 10.672C16.1551 10.9387 16.6938 11.072 17.2911 11.072ZM23.991 3.584H25.127V10.272L30.743 3.584H31.751V12H30.615V5.312L25.015 12H23.991V3.584ZM38.5266 12.08C37.6946 12.08 36.948 11.8987 36.2866 11.536C35.636 11.1733 35.124 10.6667 34.7506 10.016C34.3773 9.35467 34.1906 8.61333 34.1906 7.792C34.1906 6.97067 34.3773 6.23467 34.7506 5.584C35.124 4.93333 35.636 4.42667 36.2866 4.064C36.948 3.70133 37.6946 3.52 38.5266 3.52C39.252 3.52 39.8973 3.664 40.4626 3.952C41.0386 4.22933 41.492 4.64 41.8226 5.184L40.9746 5.76C40.6973 5.344 40.3453 5.03467 39.9186 4.832C39.492 4.61867 39.028 4.512 38.5266 4.512C37.9186 4.512 37.3693 4.65067 36.8786 4.928C36.3986 5.19467 36.02 5.57867 35.7426 6.08C35.476 6.58133 35.3426 7.152 35.3426 7.792C35.3426 8.44267 35.476 9.01867 35.7426 9.52C36.02 10.0107 36.3986 10.3947 36.8786 10.672C37.3693 10.9387 37.9186 11.072 38.5266 11.072C39.028 11.072 39.492 10.9707 39.9186 10.768C40.3453 10.5653 40.6973 10.256 40.9746 9.84L41.8226 10.416C41.492 10.96 41.0386 11.376 40.4626 11.664C39.8866 11.9413 39.2413 12.08 38.5266 12.08ZM47.0783 8.256H45.1583V12H44.0223V3.584H45.1583V7.28H47.0943L50.0543 3.584H51.2863L47.9743 7.664L51.5263 12H50.1823L47.0783 8.256Z" fill="white"/>
</svg>
